<?xml version="1.0" encoding="UTF-8" standalone="no"?>
<!-- Created with Inkscape (http://www.inkscape.org/) -->

<svg
   width="228"
   height="48"
   version="1.1"
   viewBox="0 0 60.325001 12.7"
   id="svg26"
   sodipodi:docname="ru.pineconemc.launcher.logo-darkmode.svg"
   inkscape:version="1.4.3 (0d15f75042, 2025-12-25)"
   xmlns:inkscape="http://www.inkscape.org/namespaces/inkscape"
   xmlns:sodipodi="http://sodipodi.sourceforge.net/DTD/sodipodi-0.dtd"
   xmlns="http://www.w3.org/2000/svg"
   xmlns:svg="http://www.w3.org/2000/svg"
   xmlns:rdf="http://www.w3.org/1999/02/22-rdf-syntax-ns#"
   xmlns:cc="http://creativecommons.org/ns#"
   xmlns:dc="http://purl.org/dc/elements/1.1/">
  <defs
     id="defs26" />
  <sodipodi:namedview
     id="namedview26"
     pagecolor="#000000"
     bordercolor="#000000"
     borderopacity="0.25"
     inkscape:showpageshadow="2"
     inkscape:pageopacity="0.0"
     inkscape:pagecheckerboard="0"
     inkscape:deskcolor="#2e2e2e"
     inkscape:zoom="4"
     inkscape:cx="106.75"
     inkscape:cy="25.25"
     inkscape:window-width="1908"
     inkscape:window-height="1028"
     inkscape:window-x="0"
     inkscape:window-y="0"
     inkscape:window-maximized="1"
     inkscape:current-layer="g62" />
  <title
     id="title1">Prism Launcher Logo</title>
  <metadata
     id="metadata26">
    <rdf:RDF>
      <cc:Work
         rdf:about="">
        <dc:title>Prism Launcher Logo</dc:title>
        <dc:date>19/10/2022</dc:date>
        <dc:creator>
          <cc:Agent>
            <dc:title>Prism Launcher</dc:title>
          </cc:Agent>
        </dc:creator>
        <dc:contributor>
          <cc:Agent>
            <dc:title>AutiOne, Boba, ely, Fulmine, gon sawa, Pankakes, tobimori, Zeke</dc:title>
          </cc:Agent>
        </dc:contributor>
        <dc:source>https://github.com/PrismLauncher/PrismLauncher</dc:source>
        <dc:publisher>
          <cc:Agent>
            <dc:title>Prism Launcher</dc:title>
          </cc:Agent>
        </dc:publisher>
        <cc:license
           rdf:resource="http://creativecommons.org/licenses/by-sa/4.0/" />
      </cc:Work>
      <cc:License
         rdf:about="http://creativecommons.org/licenses/by-sa/4.0/">
        <cc:permits
           rdf:resource="http://creativecommons.org/ns#Reproduction" />
        <cc:permits
           rdf:resource="http://creativecommons.org/ns#Distribution" />
        <cc:requires
           rdf:resource="http://creativecommons.org/ns#Notice" />
        <cc:requires
           rdf:resource="http://creativecommons.org/ns#Attribution" />
        <cc:permits
           rdf:resource="http://creativecommons.org/ns#DerivativeWorks" />
        <cc:requires
           rdf:resource="http://creativecommons.org/ns#ShareAlike" />
      </cc:License>
    </rdf:RDF>
  </metadata>
  <g
     stroke-width="0.26458"
     id="g24"
     transform="matrix(1.0000015,0,0,1,2.5207819e-4,9.6656667e-5)">
    <path
       d="M 6.35,6.35"
       fill="#99cd61"
       id="path4-0" />
    <path
       d="M 6.35,0.52917 3.8292,4.89477 6.35,6.34997 8.8703,4.89477 8.97985,1.79517 C 7.82875,1.13058 6.64105,0.52907 6.35005,0.52907 Z"
       fill="#df6277"
       id="path6-2"
       style="fill:#207e5c;fill-opacity:1" />
    <path
       d="M 8.9798,1.7952 6.35,6.35 8.8703,7.8052 11.3911,3.4396 C 11.24558,3.18755 10.131,2.45985 8.9799,1.7953 Z"
       fill="#fb9168"
       id="path8-9"
       style="fill:#379070;fill-opacity:1" />
    <path
       d="M 11.391,3.4396 6.35,6.35 8.8703,7.8052 11.6092,6.35 c 0,-1.3292 -0.07255,-2.6584 -0.21808,-2.9104 z"
       fill="#f3db6c"
       id="path10-0"
       style="fill:#379070;fill-opacity:1" />
    <path
       d="m 6.35,6.35 v 2.9104 h 5.041 C 11.53652,9.00835 11.60907,7.6792 11.60908,6.35 Z"
       fill="#7ab392"
       id="path12-4"
       style="fill:#207e5c;fill-opacity:1" />
    <path
       d="m 6.35,6.35 v 2.9104 l 2.6298,1.6443 c 1.1511,-0.66459 2.2657,-1.3923 2.4112,-1.6443 z"
       fill="#4b7cbc"
       id="path14-8"
       style="fill:#136244;fill-opacity:1" />
    <path
       d="M 6.35,6.35 3.8292,7.8052 6.35,12.1708 c 0.29104,0 1.4787,-0.60148 2.6298,-1.2661 z"
       fill="#6f488c"
       id="path16-2"
       style="fill:#0c3c2a;fill-opacity:1" />
    <path
       d="M 3.8292,4.8948 1.3089,9.2604 c 0.29104,0.5041 4.459,2.9104 5.041,2.9104 V 6.35 Z"
       fill="#4d3f33"
       id="path18-4"
       style="fill:#36302b;fill-opacity:1" />
    <path
       d="m 1.309,3.4396 c -0.29104,0.5041 -0.29104,5.3167 0,5.8208 L 6.35,6.35 V 3.4396 Z"
       fill="#7a573b"
       id="path20-0"
       style="fill:#4a3c31;fill-opacity:1" />
    <path
       d="m 6.35,0.52917 c -0.58208,-2e-8 -4.75,2.4063 -5.041,2.9104 l 5.041,2.9104 z"
       fill="#99cd61"
       id="path22-8"
       style="fill:#50b469;fill-opacity:1" />
  </g>
  <g
     transform="matrix(0.88000141,0,0,0.88,-10.905766,-1.2420033)"
     id="g32">
    <g
       transform="translate(13.26,2.2776)"
       id="g28"
       style="display:inline">
      <path
         transform="matrix(0.96975,0,0,0.96975,0.1921,0.1921)"
         d="m 6.3498,2.9393 c -0.34105,0 -2.7827,1.4099 -2.9532,1.7052 L 6.3498,9.7602 9.3036,4.6445 C 9.13308,4.34915 6.6909,2.9393 6.3498,2.9393 Z"
         fill="#ffffff"
         stroke-width="0.26458"
         id="path26-0" />
    </g>
    <path
       d="m 16.746,6.9737 2.8639,4.9609 c 0.33073,0 2.6991,-1.3672 2.8644,-1.6536 0.16536,-0.28642 0.16536,-3.0209 0,-3.3073 l -2.8644,1.6536 z"
       fill="#dfdfdf"
       stroke-width="0.26458"
       id="path30"
       style="fill:#dfe9df;fill-opacity:1" />
  </g>
  <path
     d="m 3.8301582,4.8948967 c -0.1455103,0.25205 -0.1455303,2.6584 0,2.9104 0.1455302,0.25204 2.2292036,1.4552 2.520304,1.4552 v -2.9104 z"
     fill="#d6d2d2"
     stroke-width="0.264581"
     id="path34"
     style="fill:#d5d2d2;fill-opacity:1" />
  <g
     fill="#14191e"
     stroke-width="0.26458"
     aria-label="Prism Launcher"
     id="g62"
     style="display:inline;fill:#ffffff;fill-opacity:1"
     transform="matrix(1.0000015,0,0,1,1.0585027,0.16158304)">
    <g
       id="text2"
       style="font-size:9.87777px;line-height:0;font-family:'IBM Plex Sans';font-variation-settings:'opsz' 144, 'ROND' 60, 'wdth' 75, 'wght' 400;stroke-width:0.0700034"
       inkscape:label="text1"
       aria-label="PineconeMC">
      <path
         style="font-family:'Google Sans Flex'"
         d="m 12.369788,9.7493515 q -0.0889,0 -0.153106,-0.064205 -0.06421,-0.064205 -0.06421,-0.1531055 V 2.8694844 q 0,-0.0889 0.05927,-0.1531055 0.06421,-0.064205 0.143227,-0.064205 h 1.753304 q 0.809978,0 1.313744,0.474133 0.503766,0.4691941 0.503766,1.3236213 v 0.6963828 q 0,0.903816 -0.518583,1.3878267 -0.513644,0.4790719 -1.368071,0.4790719 h -1.46191 V 6.3365818 h 1.476727 q 0.538338,0 0.83961,-0.2864553 Q 15.19483,5.7636711 15.19483,5.1561882 V 4.4746221 q 0,-0.5926662 -0.325966,-0.8643049 -0.325967,-0.2716387 -0.879122,-0.2716387 h -1.126066 v 6.193362 q 0,0.0889 -0.0642,0.1531055 -0.05927,0.064205 -0.148167,0.064205 z m 4.568468,0 q -0.0889,0 -0.148167,-0.059267 -0.05927,-0.064205 -0.05927,-0.1531055 V 4.7265052 q 0,-0.0889 0.05927,-0.1481665 0.06421,-0.064205 0.148167,-0.064205 h 0.276577 q 0.08396,0 0.143228,0.064205 0.05927,0.059267 0.05927,0.1481665 v 4.8104742 q 0,0.0889 -0.05927,0.1531055 -0.05927,0.059267 -0.143228,0.059267 z m 0.13335,-5.7686179 q -0.197556,0 -0.340783,-0.1432277 -0.138289,-0.1432277 -0.138289,-0.345722 0,-0.2024943 0.138289,-0.3457219 0.143227,-0.1432277 0.340783,-0.1432277 0.207433,0 0.345722,0.1432277 0.143227,0.1432276 0.143227,0.3457219 0,0.2024943 -0.143227,0.345722 -0.138289,0.1432277 -0.345722,0.1432277 z m 1.40759,5.5562458 V 4.7166275 q 0,-0.079022 0.05433,-0.1382888 0.05927,-0.064205 0.143228,-0.064205 h 0.261761 q 0.08396,0 0.143227,0.064205 0.05927,0.059267 0.05927,0.1382888 v 0.5185829 l -0.08396,-0.054328 h 0.08396 q 0.192616,-0.3259665 0.543277,-0.5235219 0.3556,-0.2024943 0.770466,-0.2024943 0.676628,0 1.047044,0.4247442 0.370416,0.4247441 0.370416,1.116188 v 3.5411807 q 0,0.0889 -0.0642,0.1531055 -0.05927,0.059267 -0.143228,0.059267 H 21.3882 q -0.08396,0 -0.143228,-0.059267 -0.05927,-0.064205 -0.05927,-0.1531055 V 6.1884152 q 0,-0.4642552 -0.22225,-0.7507105 -0.222249,-0.2913942 -0.711199,-0.2913942 -0.449439,0 -0.770466,0.3210275 -0.316089,0.3210275 -0.316089,0.8445494 v 3.225092 q 0,0.0889 -0.0642,0.1531055 -0.05927,0.059267 -0.143228,0.059267 h -0.276577 q -0.08396,0 -0.143228,-0.059267 -0.05927,-0.064205 -0.05927,-0.1531055 z m 6.099521,0.2716387 q -0.874183,0 -1.466849,-0.5926662 Q 22.519202,8.6232857 22.519202,7.6750197 V 6.5687094 q 0,-0.9285104 0.597605,-1.5211766 0.602544,-0.5926663 1.456971,-0.5926663 0.884061,0 1.407582,0.5432774 0.528461,0.5383385 0.528461,1.4322767 v 0.6618106 q 0,0.093839 -0.06914,0.1629833 -0.06421,0.069144 -0.162983,0.069144 H 22.884679 V 6.6971204 h 2.918882 v -0.429683 q -0.01482,-0.5235218 -0.3556,-0.8396105 -0.340783,-0.3160886 -0.879122,-0.3160886 -0.563033,0 -0.963082,0.4148663 -0.395111,0.4099275 -0.395111,1.0569215 v 1.1112491 q 0,0.6519329 0.414866,1.0519826 0.419805,0.4000497 0.958144,0.4000497 0.296333,0 0.513644,-0.0889 0.217311,-0.093839 0.375355,-0.2716387 0.162983,-0.1827388 0.276578,-0.4593164 0.05433,-0.1185332 0.128411,-0.1432276 0.07902,-0.029633 0.148166,0 l 0.246945,0.0889 q 0.08396,0.029633 0.113594,0.1086555 0.02963,0.074083 -0.01482,0.1926165 -0.118533,0.3704164 -0.370416,0.6568717 -0.246944,0.2815165 -0.592666,0.4296831 -0.345722,0.1481665 -0.829733,0.1481665 z m 4.39066,0 q -0.898877,0 -1.471788,-0.5926662 Q 26.924678,8.6232857 26.924678,7.6700808 V 6.5785872 q 0,-0.948266 0.582789,-1.5359933 0.582788,-0.5877274 1.471788,-0.5877274 0.449438,0 0.785282,0.1481666 0.335845,0.1481666 0.567972,0.4049886 0.232128,0.2518831 0.385233,0.6469939 0.03457,0.1037166 -0.0049,0.1827388 -0.03951,0.074083 -0.108655,0.098778 l -0.256822,0.093839 q -0.0889,0.029633 -0.162983,-0.00494 -0.07408,-0.034572 -0.118534,-0.1333499 -0.123472,-0.2716387 -0.256822,-0.429683 -0.133349,-0.1580443 -0.340783,-0.256822 -0.207433,-0.098778 -0.488949,-0.098778 -0.563033,0 -0.958144,0.4000497 -0.390172,0.4000497 -0.390172,1.0470437 v 1.1705157 q 0,0.6321774 0.390172,1.0322271 0.395111,0.3951108 0.958144,0.3951108 0.261761,0 0.454377,-0.093839 0.197556,-0.093839 0.345722,-0.2815165 0.148167,-0.1876776 0.251883,-0.4395608 0.05927,-0.1185332 0.13335,-0.1580443 0.07902,-0.039511 0.158044,-0.014817 l 0.261761,0.093839 q 0.08396,0.029633 0.123473,0.1086554 0.03951,0.079022 -0.0099,0.2074332 -0.103717,0.3555997 -0.335844,0.6272384 -0.232128,0.2716387 -0.567972,0.4395608 -0.335844,0.1679221 -0.824794,0.1679221 z m 4.262267,0 q -0.903816,0 -1.486604,-0.6074829 Q 31.162251,8.5887135 31.162251,7.6898364 V 6.5736483 q 0,-0.8939382 0.582789,-1.50636 0.582788,-0.6124218 1.486604,-0.6124218 0.903816,0 1.491543,0.6124218 0.587728,0.6124218 0.587728,1.50636 v 1.1161881 q 0,0.8988771 -0.587728,1.5112988 -0.587727,0.6074829 -1.491543,0.6074829 z m 0,-0.6716884 q 0.563033,0 0.968022,-0.4049886 0.404988,-0.4049886 0.404988,-1.0124714 V 6.544015 q 0,-0.6074829 -0.404988,-1.0075326 -0.404989,-0.4049886 -0.968022,-0.4049886 -0.563033,0 -0.968021,0.4049886 -0.40005,0.4000497 -0.40005,1.0075326 v 1.1754547 q 0,0.6074828 0.40005,1.0124714 0.404988,0.4049886 0.968021,0.4049886 z m 2.795417,0.4000497 V 4.7166275 q 0,-0.079022 0.05433,-0.1382888 0.05927,-0.064205 0.143228,-0.064205 h 0.26176 q 0.08396,0 0.143228,0.064205 0.05927,0.059267 0.05927,0.1382888 v 0.5185829 l -0.08396,-0.054328 h 0.08396 q 0.192616,-0.3259665 0.543277,-0.5235219 0.3556,-0.2024943 0.770466,-0.2024943 0.676628,0 1.047044,0.4247442 0.370416,0.4247441 0.370416,1.116188 v 3.5411807 q 0,0.0889 -0.0642,0.1531055 -0.05927,0.059267 -0.143228,0.059267 h -0.276577 q -0.08396,0 -0.143228,-0.059267 -0.05927,-0.064205 -0.05927,-0.1531055 V 6.1884152 q 0,-0.4642552 -0.22225,-0.7507105 -0.222249,-0.2913942 -0.711199,-0.2913942 -0.449439,0 -0.770466,0.3210275 -0.316089,0.3210275 -0.316089,0.8445494 v 3.225092 q 0,0.0889 -0.06421,0.1531055 -0.05927,0.059267 -0.143228,0.059267 h -0.276578 q -0.08396,0 -0.143227,-0.059267 -0.05927,-0.064205 -0.05927,-0.1531055 z m 6.099521,0.2716387 q -0.874183,0 -1.466849,-0.5926662 Q 40.067067,8.6232857 40.067067,7.6750197 V 6.5687094 q 0,-0.9285104 0.597605,-1.5211766 0.602544,-0.5926663 1.456971,-0.5926663 0.88406,0 1.407582,0.5432774 0.528461,0.5383385 0.528461,1.4322767 v 0.6618106 q 0,0.093839 -0.06914,0.1629833 -0.06421,0.069144 -0.162984,0.069144 H 40.432544 V 6.6971204 h 2.918881 V 6.2674374 Q 43.336609,5.7439156 42.995826,5.4278269 42.655043,5.1117383 42.116704,5.1117383 q -0.563033,0 -0.963082,0.4148663 -0.395111,0.4099275 -0.395111,1.0569215 v 1.1112491 q 0,0.6519329 0.414866,1.0519826 0.419805,0.4000497 0.958144,0.4000497 0.296333,0 0.513644,-0.0889 0.217311,-0.093839 0.375355,-0.2716387 0.162983,-0.1827388 0.276578,-0.4593164 0.05433,-0.1185332 0.128411,-0.1432276 0.07902,-0.029633 0.148166,0 l 0.246945,0.0889 q 0.08396,0.029633 0.113594,0.1086555 0.02963,0.074083 -0.01482,0.1926165 -0.118533,0.3704164 -0.370416,0.6568717 -0.246944,0.2815165 -0.592666,0.4296831 -0.345722,0.1481665 -0.829733,0.1481665 z"
         id="path1" />
      <path
         style="font-family:'Google Sans Flex';font-variation-settings:'opsz' 144, 'ROND' 60, 'wdth' 80, 'wght' 700;fill:#379070"
         d="m 45.218316,9.7789848 q -0.202494,0 -0.345722,-0.1432277 -0.143228,-0.1481665 -0.143228,-0.3506608 l 0.0049,-5.9908678 q 0,-0.2963331 0.202495,-0.5037663 0.207433,-0.212372 0.498827,-0.212372 h 0.824794 q 0.227188,0 0.414866,0.1432276 0.187678,0.1432277 0.256822,0.3358442 l 1.486605,4.2375635 h 0.0049 L 49.89544,3.0522231 q 0.06421,-0.1926165 0.246945,-0.3309053 0.187677,-0.1432276 0.409927,-0.1432276 h 0.805038 q 0.281517,0 0.479072,0.2074331 0.202494,0.2024943 0.202494,0.4938886 v 6.020501 q 0,0.1926166 -0.138288,0.3358442 -0.138289,0.1432277 -0.335845,0.1432277 h -0.627238 q -0.197555,0 -0.335844,-0.1432277 Q 50.463412,9.4925295 50.463412,9.2999129 V 5.9167766 l 0.0099,-0.390172 v 0 l -1.37301,3.9115971 q -0.04939,0.1382888 -0.1778,0.2370665 -0.128411,0.098778 -0.281517,0.098778 h -0.479071 q -0.158045,0 -0.286456,-0.098778 -0.128411,-0.098778 -0.172861,-0.2370665 L 46.344382,5.5512991 v 0 l 0.0099,0.3901719 v 3.3436253 q 0,0.2024943 -0.143228,0.3506608 -0.143228,0.1432277 -0.345722,0.1432277 z m 10.717383,0.04445 q -1.432277,0 -2.306459,-0.903816 -0.874183,-0.9087549 -0.874183,-2.410176 V 5.8673877 q 0,-1.50636 0.893938,-2.410176 0.898877,-0.903816 2.30646,-0.903816 0.577849,0 1.01741,0.1580444 0.4445,0.1531054 0.750711,0.4099274 0.311149,0.2568221 0.474133,0.5235219 0.167922,0.2666998 0.138288,0.4346219 -0.02963,0.1679221 -0.153105,0.2716386 l -0.48895,0.4148664 Q 57.565531,4.8697329 57.446998,4.8746718 57.333404,4.8796107 57.190176,4.7610774 57.046948,4.6376053 56.879026,4.5141332 56.711104,4.3857221 56.498732,4.2918833 56.28636,4.1980445 55.990027,4.1980445 q -0.627239,0 -1.042105,0.4198052 -0.409927,0.4148664 -0.409927,1.1112492 V 6.672426 q 0,0.6618106 0.39511,1.0816159 0.395111,0.4198052 1.042105,0.4198052 0.316089,0 0.543278,-0.098778 0.227188,-0.098778 0.39511,-0.2370665 0.172861,-0.1382888 0.306211,-0.2716387 0.138289,-0.1333499 0.256822,-0.1333499 0.118534,-0.00494 0.242006,0.093839 l 0.508705,0.3704164 q 0.118533,0.098778 0.153105,0.2469443 0.03951,0.1432277 -0.118533,0.4494385 -0.153105,0.301272 -0.464255,0.5926663 -0.31115,0.2864553 -0.775405,0.4642552 -0.459316,0.172861 -1.086555,0.172861 z"
         id="path2" />
    </g>
  </g>
</svg>
